<svg width="196" height="31" viewBox="0 0 196 31" fill="none" xmlns="http://www.w3.org/2000/svg">
<g clip-path="url(#clip0_2_163)">
<path d="M128.99 30.75L133.44 23.04L137.88 30.75H128.99Z" fill="#fec52d"/>
<path d="M17.25 0.949951L10.86 12.15L4.47 0.949951H0L8.75 15.94V28.01H13.01V15.94L21.72 0.949951H17.25Z" fill="#fec52d"/>
<path d="M25.9801 7.33006C23.5401 7.33006 21.3901 8.23006 19.6001 10.0001C17.6101 11.9801 16.6001 14.6301 16.6001 17.8901C16.6001 21.1501 17.5901 23.5701 19.5301 25.4401C21.2801 27.1401 23.4301 28.0001 25.9401 28.0001C27.6501 28.0001 29.2301 27.7401 30.6301 27.2201C31.7601 26.8201 32.6201 26.3301 33.1901 25.7701L33.3701 25.5901L31.6001 22.5601L31.3001 22.8201C30.0601 23.9001 28.4801 24.4501 26.6101 24.4501C24.9901 24.4501 23.6401 23.9501 22.6201 22.9601C21.5101 21.8701 20.9201 20.3101 20.8701 18.3101H34.7001L34.7701 18.0701C34.9601 17.4101 35.0501 16.6701 35.0501 15.8901C35.0501 13.3501 34.2501 11.2701 32.6801 9.73006C31.0601 8.13006 28.8101 7.31006 25.9801 7.31006M21.0001 15.1701C21.1801 14.0201 21.7001 13.0301 22.5301 12.2401C23.5001 11.3201 24.7101 10.8501 26.1501 10.8501C27.7001 10.8501 28.8901 11.3101 29.7801 12.2601C30.5301 13.0601 30.9201 14.0101 30.9801 15.1701H21.0001Z" fill="#fec52d"/>
<path d="M41.88 23.49C41.34 22.95 41.08 22.23 41.08 21.28V0.589966H37.01V21.86C37 25.94 39.35 28.01 43.97 28.01H44.3V24.3H43.97C43.09 24.3 42.4 24.04 41.87 23.5" fill="#fec52d"/>
<path d="M50.7199 23.49C50.1899 22.95 49.9299 22.23 49.9299 21.28V0.589966H45.8699V21.86C45.8599 25.94 48.1999 28.01 52.8299 28.01H53.1599V24.3H52.8299C51.9499 24.3 51.2599 24.04 50.7299 23.5" fill="#fec52d"/>
<path d="M63.4301 7.32996C60.7201 7.32996 58.5101 8.28996 56.8501 10.19C55.2001 12.08 54.3601 14.58 54.3601 17.62C54.3601 20.66 55.1601 23.3 56.7401 25.16C58.3301 27.04 60.5801 28 63.4201 28C66.2601 28 68.4301 27.05 70.0501 25.19C71.6601 23.34 72.4701 20.79 72.4701 17.62C72.4701 14.45 71.6801 11.89 70.1001 10.08C68.5201 8.24996 66.2701 7.32996 63.4201 7.32996M66.9101 22.75C66.0601 23.97 64.9201 24.56 63.4201 24.56C60.1801 24.56 58.6101 22.29 58.6101 17.62C58.6101 15.47 59.0601 13.76 59.9401 12.55C60.8201 11.35 61.9501 10.77 63.4201 10.77C66.6401 10.77 68.2101 13.01 68.2101 17.62C68.2101 19.79 67.7701 21.52 66.9101 22.75Z" fill="#fec52d"/>
<path d="M91.8399 19.72L86.8699 7.16003H85.4799L80.5699 19.68L76.4999 7.16003H72.1399L79.4199 28.01H80.7699L86.1999 15.37L91.6399 28.01H92.9899L100.3 7.16003H96.2399L91.8399 19.72Z" fill="#fec52d"/>
<path d="M123.58 7.32996C120.88 7.32996 118.66 8.28996 117 10.19C115.35 12.08 114.51 14.58 114.51 17.62C114.51 20.66 115.31 23.3 116.89 25.16C118.49 27.04 120.73 28 123.57 28C126.41 28 128.58 27.05 130.2 25.19C131.81 23.34 132.62 20.8 132.62 17.62C132.62 14.44 131.82 11.89 130.25 10.08C128.67 8.24996 126.42 7.32996 123.57 7.32996M127.06 22.75C126.21 23.97 125.07 24.56 123.57 24.56C120.33 24.56 118.76 22.29 118.76 17.62C118.76 15.47 119.21 13.76 120.09 12.55C120.96 11.35 122.1 10.77 123.56 10.77C126.78 10.77 128.35 13.01 128.35 17.62C128.35 19.79 127.91 21.52 127.05 22.75" fill="#fec52d"/>
<path d="M113.9 23.83C113.01 24.25 112.14 24.47 111.32 24.47C110.21 24.47 109.41 24.17 108.93 23.57C108.43 22.95 108.18 21.85 108.18 20.31V11.05H115C115.32 10.47 115.69 9.91998 116.13 9.42998C117.05 8.37998 118.15 7.64998 119.4 7.16998H108.11L108.17 0.599976H104.08L104.03 7.16998H101.79L101.85 11.06H104.09V21.69C104.09 23.5 104.65 25.02 105.75 26.21C106.86 27.41 108.24 28.02 109.86 28.02C111.57 28.02 113.17 27.84 114.61 27.47L114.9 27.4L114.27 23.67L113.88 23.85L113.9 23.83Z" fill="#fec52d"/>
<path d="M153.11 23.83C154 24.25 154.87 24.47 155.69 24.47C156.8 24.47 157.6 24.17 158.08 23.57C158.58 22.95 158.83 21.85 158.83 20.31V11.05H152C151.68 10.47 151.31 9.91998 150.87 9.42998C149.95 8.37998 148.85 7.64998 147.6 7.16998H158.89L158.83 0.599976H162.92L162.97 7.16998H165.21L165.15 11.06H162.91V21.69C162.91 23.5 162.35 25.02 161.25 26.21C160.14 27.41 158.76 28.02 157.14 28.02C155.43 28.02 153.83 27.84 152.39 27.47L152.1 27.4L152.73 23.67L153.12 23.85L153.11 23.83Z" fill="#fec52d"/>
<path d="M143.39 7.32996C140.69 7.32996 138.47 8.28996 136.81 10.19C135.16 12.08 134.32 14.58 134.32 17.62C134.32 20.66 135.12 23.3 136.71 25.16C138.31 27.04 140.55 28 143.39 28C146.23 28 148.4 27.05 150.02 25.19C151.63 23.34 152.44 20.8 152.44 17.62C152.44 14.44 151.65 11.89 150.07 10.08C148.49 8.24996 146.24 7.32996 143.39 7.32996ZM146.88 22.75C146.03 23.97 144.89 24.56 143.39 24.56C140.15 24.56 138.58 22.29 138.58 17.62C138.58 15.47 139.03 13.76 139.91 12.55C140.78 11.35 141.92 10.77 143.39 10.77C146.61 10.77 148.18 13.01 148.18 17.62C148.18 19.79 147.74 21.52 146.88 22.75Z" fill="#fec52d"/>
<path d="M126.51 13.54C126.51 15.16 125.19 16.48 123.57 16.48C121.95 16.48 120.63 15.17 120.63 13.54C120.63 11.91 121.94 10.6 123.57 10.6C125.2 10.6 126.51 11.92 126.51 13.54Z" fill="#fec52d"/>
<path d="M146.32 13.54C146.32 15.16 145.01 16.48 143.38 16.48C141.75 16.48 140.44 15.17 140.44 13.54C140.44 11.91 141.76 10.6 143.38 10.6C145 10.6 146.32 11.92 146.32 13.54Z" fill="#fec52d"/>
<path d="M180.5 9.29006C179.28 7.88006 177.58 7.16006 175.45 7.16006C174.32 7.16006 173.22 7.41006 172.17 7.90006C171.46 8.23006 170.88 8.62006 170.43 9.07006V0.0600586H166.35V28.0101H170.43V12.9101C170.84 12.3401 171.43 11.8201 172.19 11.3901C172.97 10.9401 173.76 10.7101 174.52 10.7101C175.72 10.7101 176.61 11.0801 177.26 11.8401C177.92 12.6001 178.24 13.6801 178.24 15.0401V28.0301H182.32V15.0401C182.32 12.6401 181.71 10.7101 180.5 9.31006" fill="#fec52d"/>
<path d="M195.82 21.95C195.74 21.06 195.69 18.06 191.23 16.39C190.05 15.95 187.47 15.1 187.47 13.25C187.47 11.4 189.04 11.02 189.35 10.94C191.61 10.38 194.2 11.64 194.44 11.74L195.64 8.19004C193.29 7.29004 191.22 7.17004 190.29 7.17004C189.54 7.17004 187.54 7.17004 185.8 8.53004C185.19 9.01004 183.53 10.62 183.53 13.52C183.53 17.2 187.06 18.49 187.54 18.67L189.2 19.3C191.63 20.1 191.74 21.61 191.74 22.04C191.74 22.91 190.96 24.76 188.13 24.61C187.37 24.57 186.65 24.53 185.98 24.38C185.52 24.27 185.03 24.13 184.52 23.95L183.84 27.34C187.51 28.42 190.9 27.9 191.77 27.61C192.71 27.3 193.49 26.87 194.13 26.33C194.77 25.78 195.98 24.06 195.8 21.93" fill="#fec52d"/>
<path d="M194.3 0.41C194.77 0.68 195.14 1.06 195.41 1.55C195.68 2.04 195.81 2.58 195.81 3.18C195.81 3.78 195.68 4.32 195.41 4.8C195.14 5.28 194.77 5.66 194.3 5.93C193.83 6.2 193.3 6.34 192.7 6.34C192.1 6.34 191.56 6.2 191.09 5.93C190.62 5.66 190.24 5.28 189.98 4.8C189.71 4.32 189.58 3.78 189.58 3.18C189.58 2.58 189.71 2.04 189.98 1.55C190.25 1.07 190.62 0.69 191.09 0.41C191.56 0.14 192.1 0 192.7 0C193.3 0 193.84 0.14 194.3 0.41ZM194.54 5.07C195.01 4.57 195.24 3.94 195.24 3.17C195.24 2.4 195.01 1.77 194.54 1.27C194.07 0.77 193.46 0.53 192.7 0.53C191.94 0.53 191.31 0.78 190.84 1.27C190.37 1.77 190.14 2.4 190.14 3.17C190.14 3.94 190.37 4.57 190.84 5.07C191.31 5.57 191.93 5.81 192.7 5.81C193.47 5.81 194.07 5.56 194.54 5.07ZM193.85 3.13C193.7 3.3 193.5 3.42 193.23 3.47L194.18 4.83L193.37 4.85L192.5 3.51H192.14V4.85H191.46V1.45H192.93C193.28 1.45 193.56 1.54 193.76 1.73C193.97 1.91 194.07 2.16 194.07 2.48C194.07 2.74 194 2.96 193.85 3.14V3.13ZM192.14 2.93H192.88C193.03 2.93 193.15 2.89 193.24 2.82C193.33 2.75 193.38 2.64 193.38 2.49C193.38 2.34 193.33 2.23 193.24 2.17C193.14 2.1 193.02 2.07 192.88 2.07H192.14V2.94V2.93Z" fill="#fec52d"/>
</g>
<defs>
<clipPath id="clip0_2_163">
<rect width="195.84" height="30.75" fill="#fec52d"/>
</clipPath>
</defs>
</svg>
